<?xml version="1.0" standalone="no"?>
<!DOCTYPE svg PUBLIC "-//W3C//DTD SVG 20010904//EN"
 "http://www.w3.org/TR/2001/REC-SVG-20010904/DTD/svg10.dtd">
<svg version="1.0" xmlns="http://www.w3.org/2000/svg"
 width="489.000000pt" height="429.000000pt" viewBox="0 0 489.000000 429.000000"
 preserveAspectRatio="xMidYMid meet">

<g transform="translate(0.000000,429.000000) scale(0.100000,-0.100000)"
fill="#000000" stroke="none">
<path d="M1670 4057 c0 -1 35 -36 78 -77 l77 -75 -75 78 c-69 71 -80 82 -80
74z"/>
<path d="M1950 3765 c47 -47 87 -85 90 -85 2 0 -33 38 -80 85 -47 47 -87 85
-90 85 -2 0 33 -38 80 -85z"/>
<path d="M2156 3550 c34 -36 71 -76 84 -90 16 -18 20 -20 12 -5 -6 11 -44 52
-84 90 l-73 70 61 -65z"/>
<path d="M2285 3410 c10 -11 20 -20 23 -20 3 0 -3 9 -13 20 -10 11 -20 20 -23
20 -3 0 3 -9 13 -20z"/>
<path d="M2408 3285 c85 -94 182 -191 153 -152 -13 16 -4 17 159 17 149 0 171
-2 166 -15 -3 -8 -4 -15 -3 -15 1 0 29 9 62 19 l60 19 -43 11 c-24 7 -50 15
-58 18 -8 3 -14 -1 -14 -11 0 -14 -21 -16 -177 -16 l-178 0 -109 112 -108 113
90 -100z"/>
<path d="M810 3265 l0 -65 34 0 c19 0 38 5 41 10 4 6 -7 10 -24 10 -31 0 -31
0 -31 55 0 30 -4 55 -10 55 -6 0 -10 -28 -10 -65z"/>
<path d="M917 3293 c-13 -12 -7 -71 8 -83 16 -13 65 -6 65 10 0 5 -12 8 -26 7
-15 -1 -29 4 -31 11 -3 8 7 12 31 12 39 0 41 2 26 31 -10 19 -59 27 -73 12z
m51 -21 c2 -7 -6 -12 -17 -12 -21 0 -27 11 -14 24 9 9 26 2 31 -12z"/>
<path d="M1018 3275 c-16 -36 13 -79 49 -70 18 4 24 2 20 -7 -2 -7 -16 -12
-31 -11 -14 1 -26 -2 -26 -8 0 -13 54 -11 68 3 7 7 12 36 12 65 l0 53 -40 0
c-33 0 -42 -4 -52 -25z m56 9 c21 -8 21 -53 0 -61 -8 -3 -22 1 -31 9 -12 12
-13 20 -4 37 13 23 13 23 35 15z"/>
<path d="M3090 3170 c0 -58 15 -84 22 -37 2 17 11 23 36 25 29 3 32 1 32 -22
0 -14 5 -26 10 -26 6 0 10 27 10 60 0 33 -4 60 -10 60 -5 0 -10 -12 -10 -26 0
-23 -3 -25 -32 -22 -25 2 -34 8 -36 26 -7 46 -22 20 -22 -38z"/>
<path d="M3580 3203 c-10 -12 -11 -18 -2 -21 7 -2 12 -19 12 -37 0 -32 23 -55
35 -35 4 6 1 10 -4 10 -15 0 -14 57 1 62 9 3 8 9 -4 21 -20 20 -19 20 -38 0z"/>
<path d="M3230 3157 c0 -46 14 -62 45 -51 8 4 15 1 15 -5 0 -11 -13 -15 -37
-12 -6 1 -14 -3 -18 -9 -9 -14 48 -13 63 2 14 14 16 118 3 118 -6 0 -11 -17
-13 -37 -2 -27 -8 -39 -20 -41 -14 -3 -18 4 -18 32 0 19 -4 38 -10 41 -6 4
-10 -11 -10 -38z"/>
<path d="M3340 3134 c0 -36 4 -64 10 -64 6 0 10 9 10 20 0 16 5 19 23 15 35
-9 64 27 51 63 -8 23 -15 27 -52 28 l-42 2 0 -64z m75 36 c11 -17 -6 -50 -25
-50 -19 0 -36 33 -25 50 3 5 15 10 25 10 10 0 22 -5 25 -10z"/>
<path d="M3460 3180 c-22 -40 17 -89 60 -75 24 7 37 51 23 74 -16 26 -69 26
-83 1z m65 -30 c0 -33 -40 -41 -50 -11 -9 28 2 43 28 39 16 -2 22 -10 22 -28z"/>
<path d="M3662 3188 c-17 -17 -15 -54 4 -72 17 -18 24 -19 48 -10 25 9 19 20
-11 19 -14 0 -28 6 -30 13 -3 8 7 12 31 12 23 0 36 5 36 13 0 19 -21 37 -45
37 -12 0 -26 -5 -33 -12z m58 -19 c0 -5 -11 -9 -25 -9 -26 0 -34 15 -12 23 16
5 37 -3 37 -14z"/>
<path d="M3765 3192 c-9 -9 -5 -82 4 -82 6 0 11 15 13 33 2 24 8 33 26 35 19
3 22 -1 22 -32 0 -20 5 -36 11 -36 6 0 9 17 7 43 -3 41 -4 42 -40 43 -21 1
-40 -1 -43 -4z"/>
<path d="M3878 3194 c-23 -22 3 -94 33 -94 31 0 49 22 49 60 0 22 -4 40 -10
40 -5 0 -10 -16 -10 -35 0 -23 -6 -38 -15 -42 -21 -7 -27 0 -34 43 -3 20 -9
32 -13 28z"/>
<path d="M3986 3191 c-10 -15 4 -39 25 -44 10 -3 19 -11 19 -17 0 -8 -9 -10
-25 -6 -29 7 -35 -10 -6 -19 48 -15 73 37 25 55 -29 12 -22 34 8 24 14 -4 18
-2 14 5 -9 13 -53 15 -60 2z"/>
<path d="M4092 3188 c-34 -34 2 -97 48 -83 29 9 25 21 -7 20 -14 0 -28 6 -30
13 -3 8 7 12 31 12 23 0 36 5 36 13 0 19 -21 37 -45 37 -12 0 -26 -5 -33 -12z
m48 -18 c0 -5 -9 -10 -20 -10 -11 0 -20 5 -20 10 0 6 9 10 20 10 11 0 20 -4
20 -10z"/>
<path d="M1275 3171 l-49 -17 51 -17 c29 -9 53 -17 55 -17 2 0 4 16 4 35 1 19
-1 34 -5 34 -3 -1 -28 -9 -56 -18z"/>
<path d="M1615 3161 c-3 -5 -1 -12 5 -16 5 -3 10 1 10 9 0 18 -6 21 -15 7z"/>
<path d="M880 3045 c0 -37 4 -65 10 -65 6 0 10 15 10 34 0 20 6 36 14 39 20 8
26 -1 26 -39 0 -18 5 -36 11 -39 7 -5 9 9 7 42 -3 44 -5 48 -30 51 -20 2 -28
9 -28 23 0 10 -4 19 -10 19 -6 0 -10 -28 -10 -65z"/>
<path d="M417 3082 c-21 -24 -22 -90 -1 -120 25 -36 34 -25 13 16 -21 40 -18
75 8 105 9 9 12 17 6 17 -5 0 -17 -8 -26 -18z"/>
<path d="M470 3041 c0 -61 16 -93 22 -44 2 23 8 29 36 31 30 3 32 1 32 -28 0
-18 4 -29 10 -25 6 3 10 33 10 66 0 33 -4 59 -10 59 -5 0 -10 -12 -10 -26 0
-23 -3 -25 -32 -22 -25 2 -34 8 -36 26 -7 46 -22 20 -22 -37z"/>
<path d="M1070 3092 c0 -4 7 -16 15 -26 8 -11 15 -32 15 -46 0 -14 -7 -35 -15
-46 -21 -28 -18 -40 4 -20 26 24 36 71 21 106 -11 26 -40 50 -40 32z"/>
<path d="M998 3073 c-10 -13 -10 -17 0 -20 6 -3 12 -20 12 -38 0 -37 15 -54
33 -36 8 8 8 11 -1 11 -14 0 -16 52 -2 66 6 6 3 14 -9 21 -16 10 -22 9 -33 -4z"/>
<path d="M2618 3065 c11 -16 53 -61 94 -100 l73 -70 -85 90 c-46 50 -88 95
-94 100 -5 6 0 -3 12 -20z"/>
<path d="M610 3051 c-5 -11 -10 -26 -10 -34 0 -20 36 -49 56 -45 26 5 28 24 2
23 -36 0 -36 20 0 23 33 3 37 9 26 36 -9 23 -61 21 -74 -3z m58 -9 c4 -14 -34
-16 -42 -3 -6 10 13 21 28 17 6 -1 12 -8 14 -14z"/>
<path d="M717 3063 c-10 -10 -8 -66 3 -83 7 -11 10 0 10 38 0 53 -1 57 -13 45z"/>
<path d="M759 3044 c-14 -38 13 -78 47 -71 16 3 23 0 21 -7 -2 -6 -16 -10 -31
-9 -14 1 -26 -3 -26 -8 0 -6 17 -9 38 -7 l37 3 3 63 3 62 -41 0 c-35 0 -42 -4
-51 -26z m55 10 c21 -8 21 -53 0 -61 -8 -3 -22 1 -31 9 -12 12 -13 20 -4 37
13 23 13 23 35 15z"/>
<path d="M2840 2827 c0 -1 35 -36 78 -77 l77 -75 -75 78 c-69 71 -80 82 -80
74z"/>
<path d="M3050 2607 c0 -1 35 -36 78 -77 l77 -75 -75 78 c-69 71 -80 82 -80
74z"/>
<path d="M2191 2528 c-27 -64 -33 -88 -23 -88 6 0 12 7 16 15 8 21 56 19 72
-2 12 -16 13 -16 14 -2 0 24 -41 119 -52 119 -5 0 -17 -19 -27 -42z m39 -24
c0 -8 -7 -14 -15 -14 -17 0 -18 2 -9 24 7 18 24 12 24 -10z"/>
<path d="M2300 2488 c0 -30 4 -47 10 -43 6 3 10 22 10 41 0 27 4 34 20 34 11
0 20 4 20 9 0 5 -13 9 -30 9 -29 -1 -30 -2 -30 -50z"/>
<path d="M2382 2528 c-17 -17 -15 -63 2 -78 17 -14 58 -10 63 6 2 7 -5 10 -20
7 -14 -3 -28 0 -31 6 -5 7 5 11 28 11 28 0 36 4 36 18 0 24 -19 42 -45 42 -12
0 -26 -5 -33 -12z m53 -18 c4 -6 -5 -10 -19 -10 -14 0 -26 5 -26 10 0 6 9 10
19 10 11 0 23 -4 26 -10z"/>
<path d="M2492 2528 c-16 -16 -15 -63 1 -77 7 -6 28 -9 45 -8 31 2 32 3 32 50
0 47 0 47 -33 47 -18 0 -38 -5 -45 -12z m53 -38 c0 -29 -32 -41 -41 -16 -9 24
4 48 23 44 12 -2 18 -12 18 -28z"/>
<path d="M3335 2310 c98 -107 125 -133 78 -75 -23 28 -65 73 -94 100 -44 41
-41 36 16 -25z"/>
<path d="M3515 2120 c28 -30 100 -107 161 -170 60 -63 122 -130 137 -149 15
-18 30 -31 33 -29 4 5 -183 206 -316 338 -54 54 -57 56 -15 10z"/>
<path d="M1622 1893 l3 -118 124 -3 c110 -2 123 -1 117 14 -3 8 -6 63 -6 120
l0 104 -120 0 -121 0 3 -117z"/>
<path d="M2352 1601 c-2 -149 -4 -172 -17 -167 -19 7 -19 3 3 -62 l18 -53 17
54 c21 65 21 68 2 61 -12 -5 -15 19 -18 168 l-3 173 -2 -174z"/>
<path d="M2000 1155 l0 -65 40 0 c45 0 55 17 13 22 -26 3 -28 7 -31 56 -4 75
-22 65 -22 -13z"/>
<path d="M2401 1194 c-11 -15 -21 -39 -21 -54 0 -28 33 -80 51 -80 6 0 1 12
-10 26 -25 32 -27 71 -5 102 23 33 10 38 -15 6z"/>
<path d="M2460 1155 l0 -65 33 0 c56 0 62 15 48 123 -1 4 -19 7 -41 7 l-40 0
0 -65z m68 33 c-7 -20 -48 -23 -48 -4 0 11 9 16 26 16 16 0 24 -5 22 -12z m0
-55 c-2 -10 -13 -19 -26 -21 -17 -3 -22 2 -22 17 0 16 6 21 26 21 19 0 25 -5
22 -17z"/>
<path d="M2903 1203 c28 -32 31 -70 8 -108 -23 -39 -15 -47 15 -14 11 13 19
35 19 59 0 37 -26 80 -48 80 -6 0 -3 -8 6 -17z"/>
<path d="M2112 1178 c-30 -30 0 -92 41 -86 28 4 32 24 5 23 -36 0 -36 20 0 23
48 5 36 52 -13 52 -12 0 -26 -5 -33 -12z m58 -19 c0 -5 -11 -9 -25 -9 -26 0
-34 15 -12 23 16 5 37 -3 37 -14z"/>
<path d="M2222 1178 c-17 -17 -15 -63 3 -78 9 -7 25 -10 42 -5 24 6 25 5 13
-10 -9 -11 -22 -14 -37 -10 -13 3 -23 1 -23 -4 0 -17 44 -20 67 -5 19 12 23
23 23 69 l0 55 -38 0 c-21 0 -43 -5 -50 -12z m58 -13 c18 -22 3 -57 -23 -53
-25 3 -34 32 -17 53 16 19 24 19 40 0z"/>
<path d="M2578 1165 c-17 -38 11 -75 57 -73 35 1 35 1 35 50 l0 48 -40 0 c-33
0 -42 -4 -52 -25z m65 -7 c14 -21 2 -48 -22 -48 -24 0 -37 36 -20 56 14 17 28
14 42 -8z"/>
<path d="M2700 1166 c0 -17 7 -26 25 -30 36 -9 32 -30 -5 -22 -37 7 -40 -11
-4 -20 35 -9 63 18 44 40 -7 9 -19 16 -26 16 -8 0 -14 7 -14 15 0 12 7 14 26
9 19 -5 25 -4 20 5 -4 6 -20 11 -37 11 -24 0 -29 -4 -29 -24z"/>
<path d="M2802 1178 c-17 -17 -15 -63 2 -78 17 -13 58 -10 63 5 2 6 -9 11 -23
10 -15 0 -29 6 -31 13 -3 8 7 12 31 12 39 0 41 2 26 31 -12 21 -50 25 -68 7z
m46 -16 c2 -7 -6 -12 -17 -12 -21 0 -27 11 -14 24 9 9 26 2 31 -12z"/>
<path d="M2760 645 c-9 -10 -9 -15 -1 -15 7 0 11 -20 11 -50 0 -27 5 -50 10
-50 12 0 13 117 1 124 -5 3 -14 -1 -21 -9z"/>
<path d="M943 513 c-4 -10 -11 -22 -17 -26 -8 -6 -7 -10 2 -14 7 -2 12 -22 12
-44 0 -24 4 -38 10 -34 6 3 10 21 10 40 0 18 6 36 13 39 10 5 10 7 0 12 -18 8
-16 24 2 24 8 0 15 5 15 10 0 17 -40 11 -47 -7z"/>
<path d="M1363 460 c0 -41 2 -59 4 -40 9 70 53 77 53 8 0 -23 4 -37 10 -33 11
7 13 54 4 79 -4 9 -18 16 -34 16 -22 0 -30 6 -33 23 -2 12 -4 -12 -4 -53z"/>
<path d="M2187 523 c-11 -10 -8 -121 3 -128 6 -4 10 20 10 64 0 71 -1 77 -13
64z"/>
<path d="M344 465 c-26 -61 -31 -90 -10 -62 17 22 72 23 80 1 4 -9 9 -14 12
-11 8 8 -38 127 -49 127 -4 0 -19 -25 -33 -55z m46 -11 c0 -8 -7 -14 -15 -14
-15 0 -21 21 -9 33 10 9 24 -2 24 -19z"/>
<path d="M1060 455 c0 -37 4 -65 10 -65 6 0 10 11 10 25 0 20 5 25 25 25 18 0
28 -7 35 -25 5 -14 11 -25 13 -25 7 0 1 105 -6 118 -5 6 -26 12 -48 12 l-39 0
0 -65z m69 46 c21 -13 5 -41 -24 -41 -18 0 -25 5 -25 18 0 31 21 41 49 23z"/>
<path d="M1608 510 c19 -8 22 -17 22 -65 0 -30 5 -55 10 -55 6 0 10 25 10 55
0 48 3 57 23 65 17 7 10 9 -33 9 -43 0 -50 -2 -32 -9z"/>
<path d="M4025 510 c-3 -5 -1 -10 4 -10 6 0 11 5 11 10 0 6 -2 10 -4 10 -3 0
-8 -4 -11 -10z"/>
<path d="M4190 449 c0 -74 15 -88 22 -19 5 53 32 46 39 -10 6 -53 22 -33 17
22 -3 29 -7 33 -30 33 -20 -1 -28 4 -28 17 0 9 -4 20 -10 23 -6 4 -10 -21 -10
-66z"/>
<path d="M1469 494 c-9 -11 -9 -18 -1 -26 7 -7 12 -24 12 -39 0 -32 16 -47 33
-30 8 8 8 11 -1 11 -7 0 -12 13 -12 30 0 17 5 30 10 30 16 0 11 14 -9 27 -16
10 -22 9 -32 -3z"/>
<path d="M3132 448 l3 -63 39 0 c46 0 68 24 49 53 -6 11 -8 24 -3 33 14 22 -9
39 -52 39 l-39 0 3 -62z m68 26 c0 -10 -7 -14 -22 -12 -32 5 -35 28 -4 28 17
0 26 -5 26 -16z m8 -51 c-2 -11 -14 -19 -31 -21 -22 -3 -27 1 -27 17 0 17 6
21 31 21 24 0 30 -4 27 -17z"/>
<path d="M3780 451 c0 -33 5 -63 10 -66 6 -4 10 7 10 24 0 28 3 31 29 31 24 0
30 -5 33 -25 6 -48 23 -25 23 30 0 53 -17 78 -23 35 -3 -15 -11 -20 -33 -20
-24 0 -29 4 -29 25 0 14 -4 25 -10 25 -6 0 -10 -26 -10 -59z"/>
<path d="M4303 485 c-8 -9 -9 -16 -3 -20 6 -3 10 -22 10 -41 0 -34 22 -56 38
-39 4 4 1 10 -5 12 -17 6 -17 60 -1 65 9 3 8 9 -4 21 -20 20 -20 20 -35 2z"/>
<path d="M450 438 c0 -30 4 -47 10 -43 6 3 10 22 10 41 0 27 5 37 23 43 19 8
18 9 -10 9 -33 -1 -33 -2 -33 -50z"/>
<path d="M532 478 c-7 -7 -12 -24 -12 -40 0 -33 30 -53 67 -43 31 7 22 19 -14
20 -14 0 -28 6 -30 13 -3 8 7 12 31 12 23 0 36 5 36 13 0 19 -21 37 -45 37
-12 0 -26 -5 -33 -12z m58 -19 c0 -5 -11 -9 -25 -9 -26 0 -34 15 -12 23 16 5
37 -3 37 -14z"/>
<path d="M638 466 c-8 -20 -8 -32 0 -51 10 -22 17 -25 49 -22 38 4 38 5 38 48
0 44 0 44 -37 47 -32 3 -40 -1 -50 -22z m66 -12 c9 -24 -5 -45 -28 -42 -24 3
-33 32 -16 53 13 16 36 10 44 -11z"/>
<path d="M816 474 c-20 -19 -20 -34 0 -62 17 -24 53 -29 72 -10 15 15 15 61 0
76 -17 17 -54 15 -72 -4z m64 -30 c0 -29 -24 -41 -45 -24 -19 16 -19 25 0 44
21 20 45 9 45 -20z"/>
<path d="M1193 440 c0 -30 2 -43 4 -27 2 15 2 39 0 55 -2 15 -4 2 -4 -28z"/>
<path d="M1242 478 c-17 -17 -15 -63 3 -78 9 -7 25 -10 41 -6 19 5 25 3 21 -6
-2 -7 -18 -12 -36 -12 -36 2 -42 -11 -9 -19 13 -4 33 0 45 9 19 12 23 23 23
68 l0 53 -38 1 c-21 1 -44 -4 -50 -10z m58 -13 c19 -23 8 -50 -20 -50 -16 0
-26 6 -28 18 -4 18 14 47 28 47 4 0 13 -7 20 -15z"/>
<path d="M1703 474 c-8 -20 1 -79 12 -77 6 1 12 19 15 39 3 25 12 40 25 45 15
6 12 8 -14 6 -18 -1 -35 -7 -38 -13z"/>
<path d="M1790 440 c0 -32 4 -49 10 -45 6 3 10 24 10 45 0 21 -4 42 -10 45 -6
4 -10 -13 -10 -45z"/>
<path d="M1842 478 c-16 -16 -15 -63 1 -76 7 -6 27 -10 45 -10 32 1 32 2 32
50 0 48 0 48 -33 48 -18 0 -38 -5 -45 -12z m56 -42 c-4 -26 -37 -28 -52 -3 -9
15 -7 21 8 32 24 18 48 2 44 -29z"/>
<path d="M1950 438 c0 -26 5 -48 10 -48 6 0 10 15 10 34 0 39 20 62 38 44 7
-7 12 -27 12 -46 0 -19 4 -31 10 -27 14 9 12 71 -3 83 -7 6 -27 10 -45 10 -32
-1 -32 -2 -32 -50z"/>
<path d="M2072 478 c-17 -17 -15 -63 3 -78 8 -7 24 -10 36 -7 13 3 19 1 16 -6
-2 -7 -16 -11 -31 -10 -14 1 -26 -2 -26 -7 0 -15 38 -22 60 -10 17 9 20 21 20
69 l0 58 -33 1 c-19 1 -39 -4 -45 -10z m58 -34 c0 -29 -24 -41 -45 -24 -19 16
-19 25 0 44 21 20 45 9 45 -20z"/>
<path d="M2242 478 c-17 -17 -15 -63 2 -78 17 -13 58 -10 63 5 2 6 -9 11 -23
10 -15 0 -29 6 -31 13 -3 8 7 12 31 12 23 0 36 5 36 13 0 19 -21 37 -45 37
-12 0 -26 -5 -33 -12z m58 -19 c0 -5 -11 -9 -25 -9 -26 0 -34 15 -12 23 16 5
37 -3 37 -14z"/>
<path d="M2415 470 c-4 -6 13 -10 45 -10 32 0 49 4 45 10 -3 6 -24 10 -45 10
-21 0 -42 -4 -45 -10z"/>
<path d="M3261 461 c-24 -44 -6 -75 44 -76 38 -2 50 17 43 66 -4 33 -71 41
-87 10z m63 -17 c9 -24 -5 -45 -28 -42 -24 3 -33 32 -16 53 13 16 36 10 44
-11z"/>
<path d="M3373 463 c-4 -10 0 -21 11 -27 10 -6 25 -17 34 -24 15 -12 13 -13
-15 -8 -39 6 -45 -11 -7 -20 17 -4 31 -1 41 9 18 18 10 35 -24 48 -28 10 -21
33 8 24 11 -4 19 -2 19 4 0 18 -60 13 -67 -6z"/>
<path d="M3470 461 c-15 -29 -12 -46 10 -66 13 -12 27 -15 46 -11 30 8 25 20
-9 21 -35 0 -35 20 1 23 33 3 41 19 20 40 -18 18 -56 14 -68 -7z m60 -12 c0
-5 -9 -9 -20 -9 -19 0 -26 11 -14 23 8 8 34 -3 34 -14z"/>
<path d="M3922 468 c-22 -22 -15 -67 12 -80 25 -11 56 -6 56 10 0 4 -12 8 -27
7 -14 0 -28 6 -30 13 -3 8 7 12 31 12 23 0 36 5 36 13 0 19 -21 37 -45 37 -12
0 -26 -5 -33 -12z m52 -19 c-7 -12 -44 -12 -44 0 0 5 6 11 13 14 17 6 38 -3
31 -14z"/>
<path d="M4020 436 c0 -25 5 -48 10 -51 6 -4 10 13 10 44 0 28 -4 51 -10 51
-5 0 -10 -20 -10 -44z"/>
<path d="M4072 468 c-32 -32 2 -94 45 -83 18 4 24 2 20 -7 -2 -7 -18 -12 -36
-12 -36 2 -39 -1 -10 -16 16 -9 26 -8 45 5 20 13 24 23 24 69 l0 53 -38 1
c-21 1 -44 -4 -50 -10z m58 -13 c19 -23 8 -50 -20 -50 -16 0 -26 6 -28 18 -4
18 14 47 28 47 4 0 13 -7 20 -15z"/>
<path d="M2992 453 c7 -9 7 -17 -2 -28 -17 -20 -5 -31 16 -15 13 12 17 11 24
0 5 -8 12 -11 16 -7 4 3 1 13 -5 21 -8 10 -9 16 -1 21 20 12 10 21 -25 21 -27
0 -32 -3 -23 -13z"/>
<path d="M3630 461 c0 -6 5 -13 11 -17 8 -4 8 -9 0 -17 -17 -17 -13 -29 7 -18
13 7 23 6 30 -1 17 -17 27 -1 12 17 -10 12 -10 18 0 30 14 17 0 21 -17 4 -8
-8 -13 -8 -17 0 -9 13 -26 14 -26 2z"/>
<path d="M2410 430 c0 -5 23 -10 50 -10 28 0 50 5 50 10 0 6 -22 10 -50 10
-27 0 -50 -4 -50 -10z"/>
<path d="M2737 354 c-14 -15 -6 -24 12 -15 14 8 22 7 30 -3 10 -11 5 -22 -19
-50 -17 -19 -29 -40 -25 -46 8 -13 45 -13 65 0 12 8 11 10 -7 10 -27 0 -28 3
-7 35 23 35 15 69 -16 73 -14 2 -29 0 -33 -4z"/>
</g>
</svg>
